<svg width="136" height="31" viewBox="0 0 136 31" fill="none" xmlns="http://www.w3.org/2000/svg">
<g filter="url(#filter0_i_873_2295)">
<path d="M11 15.75L14 18.75L17 15.75" stroke="#FAFAFA" stroke-width="1.5" stroke-linecap="round" stroke-linejoin="round"/>
<rect x="8" y="5" width="90" height="20" fill="#FAFAFA"/>
<rect width="136" height="30" rx="5" fill="#A12568"/>
<path d="M55.3906 16.7598H57.0996C57.0449 17.4115 56.8626 17.9925 56.5527 18.5029C56.2428 19.0088 55.8076 19.4076 55.2471 19.6992C54.6865 19.9909 54.0052 20.1367 53.2031 20.1367C52.5879 20.1367 52.0342 20.0273 51.542 19.8086C51.0498 19.5853 50.6283 19.2708 50.2773 18.8652C49.9264 18.4551 49.6576 17.9606 49.4707 17.3818C49.2884 16.8031 49.1973 16.1559 49.1973 15.4404V14.6133C49.1973 13.8978 49.2907 13.2507 49.4775 12.6719C49.6689 12.0931 49.9424 11.5986 50.2979 11.1885C50.6533 10.7738 51.0794 10.457 51.5762 10.2383C52.0775 10.0195 52.6403 9.91016 53.2646 9.91016C54.0576 9.91016 54.7275 10.056 55.2744 10.3477C55.8213 10.6393 56.2451 11.0426 56.5459 11.5576C56.8512 12.0726 57.0381 12.6628 57.1064 13.3281H55.3975C55.3519 12.8997 55.2516 12.5329 55.0967 12.2275C54.9463 11.9222 54.723 11.6898 54.4268 11.5303C54.1305 11.3662 53.7432 11.2842 53.2646 11.2842C52.8727 11.2842 52.5309 11.3571 52.2393 11.5029C51.9476 11.6488 51.7038 11.863 51.5078 12.1455C51.3118 12.4281 51.1637 12.7767 51.0635 13.1914C50.9678 13.6016 50.9199 14.071 50.9199 14.5996V15.4404C50.9199 15.9417 50.9632 16.3975 51.0498 16.8076C51.141 17.2132 51.2777 17.5618 51.46 17.8535C51.6468 18.1452 51.8838 18.3708 52.1709 18.5303C52.458 18.6898 52.8021 18.7695 53.2031 18.7695C53.6908 18.7695 54.085 18.6921 54.3857 18.5371C54.6911 18.3822 54.9212 18.1566 55.0762 17.8604C55.2357 17.5596 55.3405 17.1927 55.3906 16.7598ZM62.9141 18.5166V14.9893C62.9141 14.7249 62.8662 14.4971 62.7705 14.3057C62.6748 14.1143 62.529 13.9661 62.333 13.8613C62.1416 13.7565 61.9001 13.7041 61.6084 13.7041C61.3395 13.7041 61.1071 13.7497 60.9111 13.8408C60.7152 13.932 60.5625 14.055 60.4531 14.21C60.3438 14.3649 60.2891 14.5404 60.2891 14.7363H58.6484C58.6484 14.4447 58.7191 14.1621 58.8604 13.8887C59.0016 13.6152 59.2067 13.3714 59.4756 13.1572C59.7445 12.943 60.0658 12.7744 60.4395 12.6514C60.8132 12.5283 61.2324 12.4668 61.6973 12.4668C62.2533 12.4668 62.7454 12.5602 63.1738 12.7471C63.6068 12.9339 63.9463 13.2165 64.1924 13.5947C64.443 13.9684 64.5684 14.4378 64.5684 15.0029V18.291C64.5684 18.6283 64.5911 18.9313 64.6367 19.2002C64.6868 19.4645 64.7575 19.6947 64.8486 19.8906V20H63.1602C63.0827 19.8223 63.0212 19.5967 62.9756 19.3232C62.9346 19.0452 62.9141 18.7764 62.9141 18.5166ZM63.1533 15.502L63.167 16.5205H61.9844C61.679 16.5205 61.4102 16.5501 61.1777 16.6094C60.9453 16.6641 60.7516 16.7461 60.5967 16.8555C60.4417 16.9648 60.3255 17.097 60.248 17.252C60.1706 17.4069 60.1318 17.5824 60.1318 17.7783C60.1318 17.9743 60.1774 18.1543 60.2686 18.3184C60.3597 18.4779 60.4919 18.6032 60.665 18.6943C60.8428 18.7855 61.057 18.8311 61.3076 18.8311C61.6449 18.8311 61.9388 18.7627 62.1895 18.626C62.4447 18.4847 62.6452 18.3138 62.791 18.1133C62.9368 17.9082 63.0143 17.7145 63.0234 17.5322L63.5566 18.2637C63.502 18.4505 63.4085 18.651 63.2764 18.8652C63.1442 19.0794 62.971 19.2845 62.7568 19.4805C62.5472 19.6719 62.2943 19.8291 61.998 19.9521C61.7064 20.0752 61.3691 20.1367 60.9863 20.1367C60.5033 20.1367 60.0726 20.041 59.6943 19.8496C59.3161 19.6536 59.0199 19.3916 58.8057 19.0635C58.5915 18.7308 58.4844 18.3548 58.4844 17.9355C58.4844 17.5436 58.5573 17.1973 58.7031 16.8965C58.8535 16.5911 59.0723 16.3359 59.3594 16.1309C59.651 15.9258 60.0065 15.7708 60.4258 15.666C60.8451 15.5566 61.3236 15.502 61.8613 15.502H63.1533ZM68.3047 9.5V20H66.6504V9.5H68.3047ZM72.123 12.6035V20H70.4688V12.6035H72.123ZM70.3594 10.6621C70.3594 10.4115 70.4414 10.2041 70.6055 10.04C70.7741 9.87142 71.0065 9.78711 71.3027 9.78711C71.5944 9.78711 71.8245 9.87142 71.9932 10.04C72.1618 10.2041 72.2461 10.4115 72.2461 10.6621C72.2461 10.9082 72.1618 11.1133 71.9932 11.2773C71.8245 11.4414 71.5944 11.5234 71.3027 11.5234C71.0065 11.5234 70.7741 11.4414 70.6055 11.2773C70.4414 11.1133 70.3594 10.9082 70.3594 10.6621ZM76.2969 20H74.6426V12.125C74.6426 11.528 74.7611 11.0244 74.998 10.6143C75.2396 10.2041 75.5837 9.89193 76.0303 9.67773C76.4814 9.46354 77.0169 9.35645 77.6367 9.35645C78.0013 9.35645 78.3522 9.39518 78.6895 9.47266C79.0312 9.55013 79.3844 9.64811 79.749 9.7666L79.4961 11.1064C79.2637 11.029 79.0062 10.9561 78.7236 10.8877C78.4411 10.8148 78.1152 10.7783 77.7461 10.7783C77.2493 10.7783 76.8825 10.8923 76.6455 11.1201C76.4131 11.3434 76.2969 11.6784 76.2969 12.125V20ZM77.7803 12.6035V13.8066H73.5078V12.6035H77.7803ZM80.5283 12.6035V20H78.8809V12.6035H80.5283ZM85.6387 18.8242C85.9076 18.8242 86.1491 18.7718 86.3633 18.667C86.582 18.5576 86.7575 18.4072 86.8896 18.2158C87.0264 18.0244 87.1016 17.8034 87.1152 17.5527H88.667C88.6579 18.0312 88.5166 18.4665 88.2432 18.8584C87.9697 19.2503 87.6074 19.5625 87.1562 19.7949C86.7051 20.0228 86.2061 20.1367 85.6592 20.1367C85.0941 20.1367 84.6019 20.041 84.1826 19.8496C83.7633 19.6536 83.4147 19.3848 83.1367 19.043C82.8587 18.7012 82.6491 18.307 82.5078 17.8604C82.3711 17.4137 82.3027 16.9352 82.3027 16.4248V16.1855C82.3027 15.6751 82.3711 15.1966 82.5078 14.75C82.6491 14.2988 82.8587 13.9023 83.1367 13.5605C83.4147 13.2188 83.7633 12.9521 84.1826 12.7607C84.6019 12.5648 85.0918 12.4668 85.6523 12.4668C86.2448 12.4668 86.7643 12.5853 87.2109 12.8223C87.6576 13.0547 88.0085 13.3805 88.2637 13.7998C88.5234 14.2145 88.6579 14.6976 88.667 15.249H87.1152C87.1016 14.9756 87.0332 14.7295 86.9102 14.5107C86.7917 14.2874 86.623 14.1097 86.4043 13.9775C86.1901 13.8454 85.9326 13.7793 85.6318 13.7793C85.2992 13.7793 85.0234 13.8477 84.8047 13.9844C84.5859 14.1165 84.415 14.2988 84.292 14.5312C84.1689 14.7591 84.0801 15.0166 84.0254 15.3037C83.9753 15.5863 83.9502 15.8802 83.9502 16.1855V16.4248C83.9502 16.7301 83.9753 17.0264 84.0254 17.3135C84.0755 17.6006 84.1621 17.8581 84.2852 18.0859C84.4128 18.3092 84.5859 18.4893 84.8047 18.626C85.0234 18.7581 85.3014 18.8242 85.6387 18.8242ZM94.3516 18.5166V14.9893C94.3516 14.7249 94.3037 14.4971 94.208 14.3057C94.1123 14.1143 93.9665 13.9661 93.7705 13.8613C93.5791 13.7565 93.3376 13.7041 93.0459 13.7041C92.777 13.7041 92.5446 13.7497 92.3486 13.8408C92.1527 13.932 92 14.055 91.8906 14.21C91.7812 14.3649 91.7266 14.5404 91.7266 14.7363H90.0859C90.0859 14.4447 90.1566 14.1621 90.2979 13.8887C90.4391 13.6152 90.6442 13.3714 90.9131 13.1572C91.182 12.943 91.5033 12.7744 91.877 12.6514C92.2507 12.5283 92.6699 12.4668 93.1348 12.4668C93.6908 12.4668 94.1829 12.5602 94.6113 12.7471C95.0443 12.9339 95.3838 13.2165 95.6299 13.5947C95.8805 13.9684 96.0059 14.4378 96.0059 15.0029V18.291C96.0059 18.6283 96.0286 18.9313 96.0742 19.2002C96.1243 19.4645 96.195 19.6947 96.2861 19.8906V20H94.5977C94.5202 19.8223 94.4587 19.5967 94.4131 19.3232C94.3721 19.0452 94.3516 18.7764 94.3516 18.5166ZM94.5908 15.502L94.6045 16.5205H93.4219C93.1165 16.5205 92.8477 16.5501 92.6152 16.6094C92.3828 16.6641 92.1891 16.7461 92.0342 16.8555C91.8792 16.9648 91.763 17.097 91.6855 17.252C91.6081 17.4069 91.5693 17.5824 91.5693 17.7783C91.5693 17.9743 91.6149 18.1543 91.7061 18.3184C91.7972 18.4779 91.9294 18.6032 92.1025 18.6943C92.2803 18.7855 92.4945 18.8311 92.7451 18.8311C93.0824 18.8311 93.3763 18.7627 93.627 18.626C93.8822 18.4847 94.0827 18.3138 94.2285 18.1133C94.3743 17.9082 94.4518 17.7145 94.4609 17.5322L94.9941 18.2637C94.9395 18.4505 94.846 18.651 94.7139 18.8652C94.5817 19.0794 94.4085 19.2845 94.1943 19.4805C93.9847 19.6719 93.7318 19.8291 93.4355 19.9521C93.1439 20.0752 92.8066 20.1367 92.4238 20.1367C91.9408 20.1367 91.5101 20.041 91.1318 19.8496C90.7536 19.6536 90.4574 19.3916 90.2432 19.0635C90.029 18.7308 89.9219 18.3548 89.9219 17.9355C89.9219 17.5436 89.9948 17.1973 90.1406 16.8965C90.291 16.5911 90.5098 16.3359 90.7969 16.1309C91.0885 15.9258 91.444 15.7708 91.8633 15.666C92.2826 15.5566 92.7611 15.502 93.2988 15.502H94.5908ZM101 18.8242C101.269 18.8242 101.51 18.7718 101.725 18.667C101.943 18.5576 102.119 18.4072 102.251 18.2158C102.388 18.0244 102.463 17.8034 102.477 17.5527H104.028C104.019 18.0312 103.878 18.4665 103.604 18.8584C103.331 19.2503 102.969 19.5625 102.518 19.7949C102.066 20.0228 101.567 20.1367 101.021 20.1367C100.455 20.1367 99.9632 20.041 99.5439 19.8496C99.1247 19.6536 98.776 19.3848 98.498 19.043C98.2201 18.7012 98.0104 18.307 97.8691 17.8604C97.7324 17.4137 97.6641 16.9352 97.6641 16.4248V16.1855C97.6641 15.6751 97.7324 15.1966 97.8691 14.75C98.0104 14.2988 98.2201 13.9023 98.498 13.5605C98.776 13.2188 99.1247 12.9521 99.5439 12.7607C99.9632 12.5648 100.453 12.4668 101.014 12.4668C101.606 12.4668 102.126 12.5853 102.572 12.8223C103.019 13.0547 103.37 13.3805 103.625 13.7998C103.885 14.2145 104.019 14.6976 104.028 15.249H102.477C102.463 14.9756 102.395 14.7295 102.271 14.5107C102.153 14.2874 101.984 14.1097 101.766 13.9775C101.551 13.8454 101.294 13.7793 100.993 13.7793C100.66 13.7793 100.385 13.8477 100.166 13.9844C99.9473 14.1165 99.7764 14.2988 99.6533 14.5312C99.5303 14.7591 99.4414 15.0166 99.3867 15.3037C99.3366 15.5863 99.3115 15.8802 99.3115 16.1855V16.4248C99.3115 16.7301 99.3366 17.0264 99.3867 17.3135C99.4368 17.6006 99.5234 17.8581 99.6465 18.0859C99.7741 18.3092 99.9473 18.4893 100.166 18.626C100.385 18.7581 100.663 18.8242 101 18.8242ZM107.307 12.6035V20H105.652V12.6035H107.307ZM105.543 10.6621C105.543 10.4115 105.625 10.2041 105.789 10.04C105.958 9.87142 106.19 9.78711 106.486 9.78711C106.778 9.78711 107.008 9.87142 107.177 10.04C107.345 10.2041 107.43 10.4115 107.43 10.6621C107.43 10.9082 107.345 11.1133 107.177 11.2773C107.008 11.4414 106.778 11.5234 106.486 11.5234C106.19 11.5234 105.958 11.4414 105.789 11.2773C105.625 11.1133 105.543 10.9082 105.543 10.6621ZM109.047 16.3838V16.2266C109.047 15.6934 109.124 15.1989 109.279 14.7432C109.434 14.2829 109.658 13.8841 109.949 13.5469C110.245 13.2051 110.605 12.9408 111.029 12.7539C111.458 12.5625 111.941 12.4668 112.479 12.4668C113.021 12.4668 113.504 12.5625 113.928 12.7539C114.356 12.9408 114.718 13.2051 115.015 13.5469C115.311 13.8841 115.536 14.2829 115.691 14.7432C115.846 15.1989 115.924 15.6934 115.924 16.2266V16.3838C115.924 16.917 115.846 17.4115 115.691 17.8672C115.536 18.3229 115.311 18.7217 115.015 19.0635C114.718 19.4007 114.358 19.665 113.935 19.8564C113.511 20.0433 113.03 20.1367 112.492 20.1367C111.95 20.1367 111.465 20.0433 111.036 19.8564C110.612 19.665 110.252 19.4007 109.956 19.0635C109.66 18.7217 109.434 18.3229 109.279 17.8672C109.124 17.4115 109.047 16.917 109.047 16.3838ZM110.694 16.2266V16.3838C110.694 16.7165 110.729 17.0309 110.797 17.3271C110.865 17.6234 110.972 17.8831 111.118 18.1064C111.264 18.3298 111.451 18.5052 111.679 18.6328C111.907 18.7604 112.178 18.8242 112.492 18.8242C112.798 18.8242 113.062 18.7604 113.285 18.6328C113.513 18.5052 113.7 18.3298 113.846 18.1064C113.992 17.8831 114.099 17.6234 114.167 17.3271C114.24 17.0309 114.276 16.7165 114.276 16.3838V16.2266C114.276 15.8984 114.24 15.5885 114.167 15.2969C114.099 15.0007 113.989 14.7386 113.839 14.5107C113.693 14.2829 113.506 14.1051 113.278 13.9775C113.055 13.8454 112.788 13.7793 112.479 13.7793C112.169 13.7793 111.9 13.8454 111.672 13.9775C111.449 14.1051 111.264 14.2829 111.118 14.5107C110.972 14.7386 110.865 15.0007 110.797 15.2969C110.729 15.5885 110.694 15.8984 110.694 16.2266ZM111.617 11.5576L112.95 9.5H114.81L112.95 11.5576H111.617ZM119.188 14.1826V20H117.541V12.6035H119.093L119.188 14.1826ZM118.895 16.0283L118.361 16.0215C118.366 15.4974 118.439 15.0166 118.58 14.5791C118.726 14.1416 118.926 13.7656 119.182 13.4512C119.441 13.1367 119.751 12.8952 120.111 12.7266C120.471 12.5534 120.872 12.4668 121.314 12.4668C121.67 12.4668 121.991 12.5169 122.278 12.6172C122.57 12.7129 122.818 12.8701 123.023 13.0889C123.233 13.3076 123.393 13.5924 123.502 13.9434C123.611 14.2897 123.666 14.7158 123.666 15.2217V20H122.012V15.2148C122.012 14.8594 121.959 14.5791 121.854 14.374C121.754 14.1644 121.606 14.0163 121.41 13.9297C121.219 13.8385 120.979 13.793 120.692 13.793C120.41 13.793 120.157 13.8522 119.934 13.9707C119.71 14.0892 119.521 14.251 119.366 14.4561C119.216 14.6611 119.1 14.8981 119.018 15.167C118.936 15.4359 118.895 15.723 118.895 16.0283Z" fill="#FAFAFA"/>
<path d="M23.75 8.5C24.0455 8.5 24.338 8.4418 24.611 8.32873C24.884 8.21566 25.1321 8.04992 25.341 7.84099C25.5499 7.63206 25.7157 7.38402 25.8287 7.11104C25.9418 6.83806 26 6.54547 26 6.25C26 5.95453 25.9418 5.66194 25.8287 5.38896C25.7157 5.11598 25.5499 4.86794 25.341 4.65901C25.1321 4.45008 24.884 4.28434 24.611 4.17127C24.338 4.0582 24.0455 4 23.75 4C23.1533 4 22.581 4.23705 22.159 4.65901C21.737 5.08097 21.5 5.65326 21.5 6.25C21.5 6.84674 21.737 7.41903 22.159 7.84099C22.581 8.26295 23.1533 8.5 23.75 8.5Z" stroke="#FAFAFA" stroke-width="1.5" stroke-linecap="round" stroke-linejoin="round"/>
<path d="M23 13C23.7956 13 24.5587 12.6839 25.1213 12.1213C25.6839 11.5587 26 10.7956 26 9.99995V6.25195" stroke="#FAFAFA" stroke-width="1.5" stroke-linecap="round" stroke-linejoin="round"/>
<path d="M21.6875 26.4961H27.3115" stroke="#FAFAFA" stroke-width="1.5" stroke-linecap="round" stroke-linejoin="round"/>
<path d="M24.5005 26.4981V18.0621C24.5007 17.9562 24.471 17.8523 24.4147 17.7626C24.3584 17.6728 24.2779 17.6007 24.1825 17.5547C24.0871 17.5088 23.9806 17.4907 23.8753 17.5026C23.77 17.5145 23.6702 17.5559 23.5875 17.6221L21.6875 19.1391" stroke="#FAFAFA" stroke-width="1.5" stroke-linecap="round" stroke-linejoin="round"/>
<path d="M14 8V23" stroke="#FAFAFA" stroke-width="1.5" stroke-linecap="round" stroke-linejoin="round"/>
<path d="M16.9985 11.0029L14.0016 7.99991L10.9985 10.9969" stroke="#FAFAFA" stroke-width="1.5" stroke-linecap="round" stroke-linejoin="round"/>
</g>
<defs>
<filter id="filter0_i_873_2295" x="0" y="0" width="136" height="35" filterUnits="userSpaceOnUse" color-interpolation-filters="sRGB">
<feFlood flood-opacity="0" result="BackgroundImageFix"/>
<feBlend mode="normal" in="SourceGraphic" in2="BackgroundImageFix" result="shape"/>
<feColorMatrix in="SourceAlpha" type="matrix" values="0 0 0 0 0 0 0 0 0 0 0 0 0 0 0 0 0 0 127 0" result="hardAlpha"/>
<feOffset dy="4"/>
<feGaussianBlur stdDeviation="2"/>
<feComposite in2="hardAlpha" operator="arithmetic" k2="-1" k3="1"/>
<feColorMatrix type="matrix" values="0 0 0 0 0 0 0 0 0 0 0 0 0 0 0 0 0 0 0.25 0"/>
<feBlend mode="normal" in2="shape" result="effect1_innerShadow_873_2295"/>
</filter>
</defs>
</svg>
