<svg width="136" height="31" viewBox="0 0 136 31" fill="none" xmlns="http://www.w3.org/2000/svg">
<path d="M17.6719 17.1875C17.4734 17.1875 17.3125 17.0336 17.3125 16.8438C17.3125 16.6539 17.4734 16.5 17.6719 16.5" stroke="#101010" stroke-width="1.5"/>
<path d="M17.6719 17.1875C17.8704 17.1875 18.0312 17.0336 18.0312 16.8438C18.0312 16.6539 17.8704 16.5 17.6719 16.5" stroke="#101010" stroke-width="1.5"/>
<path d="M23.7812 17.1875C23.5828 17.1875 23.4219 17.0336 23.4219 16.8438C23.4219 16.6539 23.5828 16.5 23.7812 16.5" stroke="#101010" stroke-width="1.5"/>
<path d="M23.7812 17.1875C23.9797 17.1875 24.1406 17.0336 24.1406 16.8438C24.1406 16.6539 23.9797 16.5 23.7812 16.5" stroke="#101010" stroke-width="1.5"/>
<path d="M29.8906 17.1875C29.6922 17.1875 29.5312 17.0336 29.5312 16.8438C29.5312 16.6539 29.6922 16.5 29.8906 16.5" stroke="#101010" stroke-width="1.5"/>
<path d="M29.8906 17.1875C30.0891 17.1875 30.25 17.0336 30.25 16.8438C30.25 16.6539 30.0891 16.5 29.8906 16.5" stroke="#101010" stroke-width="1.5"/>
<rect y="5" width="90" height="20" fill="#FAFAFA"/>
<rect width="136" height="30" rx="5" fill="#FEC260"/>
<path d="M69.874 10.0469V20H68.1582V10.0469H69.874ZM73.9346 14.4014V15.7617H69.4365V14.4014H73.9346ZM74.502 10.0469V11.4141H69.4365V10.0469H74.502ZM79.0654 20.1367C78.5186 20.1367 78.0241 20.0479 77.582 19.8701C77.1445 19.6878 76.7708 19.4349 76.4609 19.1113C76.1556 18.7878 75.9209 18.4072 75.7568 17.9697C75.5928 17.5322 75.5107 17.0605 75.5107 16.5547V16.2812C75.5107 15.7025 75.5951 15.1784 75.7637 14.709C75.9323 14.2396 76.167 13.8385 76.4678 13.5059C76.7686 13.1686 77.124 12.9111 77.5342 12.7334C77.9443 12.5557 78.3887 12.4668 78.8672 12.4668C79.3958 12.4668 79.8584 12.5557 80.2549 12.7334C80.6514 12.9111 80.9795 13.1618 81.2393 13.4854C81.5036 13.8044 81.6995 14.1849 81.8271 14.627C81.9593 15.069 82.0254 15.5566 82.0254 16.0898V16.7939H76.3105V15.6113H80.3984V15.4814C80.3893 15.1852 80.3301 14.9072 80.2207 14.6475C80.1159 14.3877 79.9541 14.1781 79.7354 14.0186C79.5166 13.859 79.2249 13.7793 78.8604 13.7793C78.5869 13.7793 78.3431 13.8385 78.1289 13.957C77.9193 14.071 77.7438 14.2373 77.6025 14.4561C77.4613 14.6748 77.3519 14.9391 77.2744 15.249C77.2015 15.5544 77.165 15.8984 77.165 16.2812V16.5547C77.165 16.8783 77.2083 17.179 77.2949 17.457C77.3861 17.7305 77.5182 17.9697 77.6914 18.1748C77.8646 18.3799 78.0742 18.5417 78.3203 18.6602C78.5664 18.7741 78.8467 18.8311 79.1611 18.8311C79.5576 18.8311 79.9108 18.7513 80.2207 18.5918C80.5306 18.4323 80.7995 18.2067 81.0273 17.915L81.8955 18.7559C81.736 18.9883 81.5286 19.2116 81.2734 19.4258C81.0182 19.6354 80.7061 19.8063 80.3369 19.9385C79.9723 20.0706 79.5485 20.1367 79.0654 20.1367ZM86.582 18.8242C86.8509 18.8242 87.0924 18.7718 87.3066 18.667C87.5254 18.5576 87.7008 18.4072 87.833 18.2158C87.9697 18.0244 88.0449 17.8034 88.0586 17.5527H89.6104C89.6012 18.0312 89.46 18.4665 89.1865 18.8584C88.9131 19.2503 88.5508 19.5625 88.0996 19.7949C87.6484 20.0228 87.1494 20.1367 86.6025 20.1367C86.0374 20.1367 85.5452 20.041 85.126 19.8496C84.7067 19.6536 84.3581 19.3848 84.0801 19.043C83.8021 18.7012 83.5924 18.307 83.4512 17.8604C83.3145 17.4137 83.2461 16.9352 83.2461 16.4248V16.1855C83.2461 15.6751 83.3145 15.1966 83.4512 14.75C83.5924 14.2988 83.8021 13.9023 84.0801 13.5605C84.3581 13.2188 84.7067 12.9521 85.126 12.7607C85.5452 12.5648 86.0352 12.4668 86.5957 12.4668C87.1882 12.4668 87.7077 12.5853 88.1543 12.8223C88.6009 13.0547 88.9518 13.3805 89.207 13.7998C89.4668 14.2145 89.6012 14.6976 89.6104 15.249H88.0586C88.0449 14.9756 87.9766 14.7295 87.8535 14.5107C87.735 14.2874 87.5664 14.1097 87.3477 13.9775C87.1335 13.8454 86.876 13.7793 86.5752 13.7793C86.2425 13.7793 85.9668 13.8477 85.748 13.9844C85.5293 14.1165 85.3584 14.2988 85.2354 14.5312C85.1123 14.7591 85.0234 15.0166 84.9688 15.3037C84.9186 15.5863 84.8936 15.8802 84.8936 16.1855V16.4248C84.8936 16.7301 84.9186 17.0264 84.9688 17.3135C85.0189 17.6006 85.1055 17.8581 85.2285 18.0859C85.3561 18.3092 85.5293 18.4893 85.748 18.626C85.9668 18.7581 86.2448 18.8242 86.582 18.8242ZM92.752 9.5V20H91.1113V9.5H92.752ZM92.4648 16.0283L91.9316 16.0215C91.9362 15.5111 92.0068 15.0394 92.1436 14.6064C92.2848 14.1735 92.4808 13.7975 92.7314 13.4785C92.9867 13.1549 93.292 12.9066 93.6475 12.7334C94.0029 12.5557 94.3971 12.4668 94.8301 12.4668C95.1947 12.4668 95.5228 12.5169 95.8145 12.6172C96.1107 12.7174 96.3659 12.8792 96.5801 13.1025C96.7943 13.3213 96.9561 13.6084 97.0654 13.9639C97.1794 14.3148 97.2363 14.7432 97.2363 15.249V20H95.582V15.2354C95.582 14.8799 95.5296 14.5973 95.4248 14.3877C95.3245 14.1781 95.1764 14.0277 94.9805 13.9365C94.7845 13.8408 94.5452 13.793 94.2627 13.793C93.9665 13.793 93.7044 13.8522 93.4766 13.9707C93.2533 14.0892 93.0664 14.251 92.916 14.4561C92.7656 14.6611 92.6517 14.8981 92.5742 15.167C92.5013 15.4359 92.4648 15.723 92.4648 16.0283ZM103.324 18.5166V14.9893C103.324 14.7249 103.276 14.4971 103.181 14.3057C103.085 14.1143 102.939 13.9661 102.743 13.8613C102.552 13.7565 102.31 13.7041 102.019 13.7041C101.75 13.7041 101.517 13.7497 101.321 13.8408C101.125 13.932 100.973 14.055 100.863 14.21C100.754 14.3649 100.699 14.5404 100.699 14.7363H99.0586C99.0586 14.4447 99.1292 14.1621 99.2705 13.8887C99.4118 13.6152 99.6169 13.3714 99.8857 13.1572C100.155 12.943 100.476 12.7744 100.85 12.6514C101.223 12.5283 101.643 12.4668 102.107 12.4668C102.663 12.4668 103.156 12.5602 103.584 12.7471C104.017 12.9339 104.356 13.2165 104.603 13.5947C104.853 13.9684 104.979 14.4378 104.979 15.0029V18.291C104.979 18.6283 105.001 18.9313 105.047 19.2002C105.097 19.4645 105.168 19.6947 105.259 19.8906V20H103.57C103.493 19.8223 103.431 19.5967 103.386 19.3232C103.345 19.0452 103.324 18.7764 103.324 18.5166ZM103.563 15.502L103.577 16.5205H102.395C102.089 16.5205 101.82 16.5501 101.588 16.6094C101.355 16.6641 101.162 16.7461 101.007 16.8555C100.852 16.9648 100.736 17.097 100.658 17.252C100.581 17.4069 100.542 17.5824 100.542 17.7783C100.542 17.9743 100.588 18.1543 100.679 18.3184C100.77 18.4779 100.902 18.6032 101.075 18.6943C101.253 18.7855 101.467 18.8311 101.718 18.8311C102.055 18.8311 102.349 18.7627 102.6 18.626C102.855 18.4847 103.055 18.3138 103.201 18.1133C103.347 17.9082 103.424 17.7145 103.434 17.5322L103.967 18.2637C103.912 18.4505 103.819 18.651 103.687 18.8652C103.554 19.0794 103.381 19.2845 103.167 19.4805C102.957 19.6719 102.704 19.8291 102.408 19.9521C102.117 20.0752 101.779 20.1367 101.396 20.1367C100.913 20.1367 100.483 20.041 100.104 19.8496C99.7262 19.6536 99.43 19.3916 99.2158 19.0635C99.0016 18.7308 98.8945 18.3548 98.8945 17.9355C98.8945 17.5436 98.9674 17.1973 99.1133 16.8965C99.2637 16.5911 99.4824 16.3359 99.7695 16.1309C100.061 15.9258 100.417 15.7708 100.836 15.666C101.255 15.5566 101.734 15.502 102.271 15.502H103.563Z" fill="#101010"/>
<path d="M33.125 6.75H14.4375C13.6436 6.75 13 7.36561 13 8.125V23.25C13 24.0094 13.6436 24.625 14.4375 24.625H33.125C33.9189 24.625 34.5625 24.0094 34.5625 23.25V8.125C34.5625 7.36561 33.9189 6.75 33.125 6.75Z" stroke="#101010" stroke-width="1.5" stroke-linecap="round" stroke-linejoin="round"/>
<path d="M13 12.25H34.5625" stroke="#101010" stroke-width="1.5" stroke-linecap="round" stroke-linejoin="round"/>
<path d="M18.75 8.8125V4" stroke="#101010" stroke-width="1.5" stroke-linecap="round" stroke-linejoin="round"/>
<path d="M28.8125 8.8125V4" stroke="#101010" stroke-width="1.5" stroke-linecap="round" stroke-linejoin="round"/>
<path d="M17.6719 16.375C17.4734 16.375 17.3125 16.2211 17.3125 16.0313C17.3125 15.8414 17.4734 15.6875 17.6719 15.6875" stroke="#101010" stroke-width="1.5"/>
<path d="M17.6719 16.375C17.8704 16.375 18.0312 16.2211 18.0312 16.0313C18.0312 15.8414 17.8704 15.6875 17.6719 15.6875" stroke="#101010" stroke-width="1.5"/>
<path d="M17.6719 21.1875C17.4734 21.1875 17.3125 21.0336 17.3125 20.8438C17.3125 20.6539 17.4734 20.5 17.6719 20.5" stroke="#101010" stroke-width="1.5"/>
<path d="M17.6719 21.1875C17.8704 21.1875 18.0312 21.0336 18.0312 20.8438C18.0312 20.6539 17.8704 20.5 17.6719 20.5" stroke="#101010" stroke-width="1.5"/>
<path d="M23.7812 16.375C23.5828 16.375 23.4219 16.2211 23.4219 16.0313C23.4219 15.8414 23.5828 15.6875 23.7812 15.6875" stroke="#101010" stroke-width="1.5"/>
<path d="M23.7812 16.375C23.9797 16.375 24.1406 16.2211 24.1406 16.0313C24.1406 15.8414 23.9797 15.6875 23.7812 15.6875" stroke="#101010" stroke-width="1.5"/>
<path d="M23.7812 21.1875C23.5828 21.1875 23.4219 21.0336 23.4219 20.8438C23.4219 20.6539 23.5828 20.5 23.7812 20.5" stroke="#101010" stroke-width="1.5"/>
<path d="M23.7812 21.1875C23.9797 21.1875 24.1406 21.0336 24.1406 20.8438C24.1406 20.6539 23.9797 20.5 23.7812 20.5" stroke="#101010" stroke-width="1.5"/>
<path d="M29.8906 16.375C29.6922 16.375 29.5312 16.2211 29.5312 16.0313C29.5312 15.8414 29.6922 15.6875 29.8906 15.6875" stroke="#101010" stroke-width="1.5"/>
<path d="M29.8906 16.375C30.0891 16.375 30.25 16.2211 30.25 16.0313C30.25 15.8414 30.0891 15.6875 29.8906 15.6875" stroke="#101010" stroke-width="1.5"/>
<path d="M29.8906 21.1875C29.6922 21.1875 29.5312 21.0336 29.5312 20.8438C29.5312 20.6539 29.6922 20.5 29.8906 20.5" stroke="#101010" stroke-width="1.5"/>
<path d="M29.8906 21.1875C30.0891 21.1875 30.25 21.0336 30.25 20.8438C30.25 20.6539 30.0891 20.5 29.8906 20.5" stroke="#101010" stroke-width="1.5"/>
<path d="M6 7V22" stroke="#101010" stroke-width="1.5" stroke-linecap="round" stroke-linejoin="round"/>
<path d="M6 7V22" stroke="#101010" stroke-width="1.5" stroke-linecap="round" stroke-linejoin="round"/>
<path d="M3 19L6 22L9 19" stroke="#101010" stroke-width="1.5" stroke-linecap="round" stroke-linejoin="round"/>
</svg>
