<svg width="69" height="24" viewBox="0 0 69 24" fill="none" xmlns="http://www.w3.org/2000/svg">
<path d="M9.5502 12.0001L16.9002 19.3501C17.1502 19.6001 17.2712 19.8918 17.2632 20.2251C17.2552 20.5584 17.1259 20.8501 16.8752 21.1001C16.6245 21.3501 16.3329 21.4751 16.0002 21.4751C15.6675 21.4751 15.3759 21.3501 15.1252 21.1001L7.4252 13.4251C7.2252 13.2251 7.0752 13.0001 6.9752 12.7501C6.8752 12.5001 6.8252 12.2501 6.8252 12.0001C6.8252 11.7501 6.8752 11.5001 6.9752 11.2501C7.0752 11.0001 7.2252 10.7751 7.4252 10.5751L15.1252 2.87509C15.3752 2.62509 15.6712 2.50409 16.0132 2.51209C16.3552 2.52009 16.6509 2.64942 16.9002 2.90009C17.1495 3.15076 17.2745 3.44242 17.2752 3.77509C17.2759 4.10776 17.1509 4.39942 16.9002 4.65009L9.5502 12.0001Z" fill="#FEC260"/>
<path d="M32.5283 14.6816L35.1465 6.54688H37.04L33.4717 16.5H32.1934L32.5283 14.6816ZM30.1084 6.54688L32.7061 14.6816L33.0615 16.5H31.7764L28.2217 6.54688H30.1084ZM37.6113 12.8838V12.7266C37.6113 12.1934 37.6888 11.6989 37.8438 11.2432C37.9987 10.7829 38.222 10.3841 38.5137 10.0469C38.8099 9.70508 39.1699 9.44076 39.5938 9.25391C40.0221 9.0625 40.5052 8.9668 41.043 8.9668C41.5853 8.9668 42.0684 9.0625 42.4922 9.25391C42.9206 9.44076 43.2829 9.70508 43.5791 10.0469C43.8753 10.3841 44.1009 10.7829 44.2559 11.2432C44.4108 11.6989 44.4883 12.1934 44.4883 12.7266V12.8838C44.4883 13.417 44.4108 13.9115 44.2559 14.3672C44.1009 14.8229 43.8753 15.2217 43.5791 15.5635C43.2829 15.9007 42.9229 16.165 42.499 16.3564C42.0752 16.5433 41.5944 16.6367 41.0566 16.6367C40.5143 16.6367 40.029 16.5433 39.6006 16.3564C39.1768 16.165 38.8167 15.9007 38.5205 15.5635C38.2243 15.2217 37.9987 14.8229 37.8438 14.3672C37.6888 13.9115 37.6113 13.417 37.6113 12.8838ZM39.2588 12.7266V12.8838C39.2588 13.2165 39.293 13.5309 39.3613 13.8271C39.4297 14.1234 39.5368 14.3831 39.6826 14.6064C39.8285 14.8298 40.0153 15.0052 40.2432 15.1328C40.471 15.2604 40.7422 15.3242 41.0566 15.3242C41.362 15.3242 41.6263 15.2604 41.8496 15.1328C42.0775 15.0052 42.2643 14.8298 42.4102 14.6064C42.556 14.3831 42.6631 14.1234 42.7314 13.8271C42.8044 13.5309 42.8408 13.2165 42.8408 12.8838V12.7266C42.8408 12.3984 42.8044 12.0885 42.7314 11.7969C42.6631 11.5007 42.5537 11.2386 42.4033 11.0107C42.2575 10.7829 42.0706 10.6051 41.8428 10.4775C41.6195 10.3454 41.3529 10.2793 41.043 10.2793C40.7331 10.2793 40.4642 10.3454 40.2363 10.4775C40.013 10.6051 39.8285 10.7829 39.6826 11.0107C39.5368 11.2386 39.4297 11.5007 39.3613 11.7969C39.293 12.0885 39.2588 12.3984 39.2588 12.7266ZM47.8828 6V16.5H46.2285V6H47.8828ZM52.3438 15.1943L54.1553 9.10352H55.8643L53.2939 16.5H52.2275L52.3438 15.1943ZM50.9561 9.10352L52.8018 15.2217L52.8906 16.5H51.8242L49.2402 9.10352H50.9561ZM60.2979 16.6367C59.751 16.6367 59.2565 16.5479 58.8145 16.3701C58.377 16.1878 58.0033 15.9349 57.6934 15.6113C57.388 15.2878 57.1533 14.9072 56.9893 14.4697C56.8252 14.0322 56.7432 13.5605 56.7432 13.0547V12.7812C56.7432 12.2025 56.8275 11.6784 56.9961 11.209C57.1647 10.7396 57.3994 10.3385 57.7002 10.0059C58.001 9.66862 58.3564 9.41113 58.7666 9.2334C59.1768 9.05566 59.6211 8.9668 60.0996 8.9668C60.6283 8.9668 61.0908 9.05566 61.4873 9.2334C61.8838 9.41113 62.2119 9.66178 62.4717 9.98535C62.736 10.3044 62.932 10.6849 63.0596 11.127C63.1917 11.569 63.2578 12.0566 63.2578 12.5898V13.2939H57.543V12.1113H61.6309V11.9814C61.6217 11.6852 61.5625 11.4072 61.4531 11.1475C61.3483 10.8877 61.1865 10.6781 60.9678 10.5186C60.749 10.359 60.4574 10.2793 60.0928 10.2793C59.8193 10.2793 59.5755 10.3385 59.3613 10.457C59.1517 10.571 58.9762 10.7373 58.835 10.9561C58.6937 11.1748 58.5843 11.4391 58.5068 11.749C58.4339 12.0544 58.3975 12.3984 58.3975 12.7812V13.0547C58.3975 13.3783 58.4408 13.679 58.5273 13.957C58.6185 14.2305 58.7507 14.4697 58.9238 14.6748C59.097 14.8799 59.3066 15.0417 59.5527 15.1602C59.7988 15.2741 60.0791 15.3311 60.3936 15.3311C60.79 15.3311 61.1432 15.2513 61.4531 15.0918C61.763 14.9323 62.0319 14.7067 62.2598 14.415L63.1279 15.2559C62.9684 15.4883 62.7611 15.7116 62.5059 15.9258C62.2507 16.1354 61.9385 16.3063 61.5693 16.4385C61.2048 16.5706 60.7809 16.6367 60.2979 16.6367ZM66.4473 10.5117V16.5H64.7998V9.10352H66.3721L66.4473 10.5117ZM68.71 9.05566L68.6963 10.5869C68.596 10.5687 68.4867 10.555 68.3682 10.5459C68.2542 10.5368 68.1403 10.5322 68.0264 10.5322C67.7438 10.5322 67.4954 10.5732 67.2812 10.6553C67.0671 10.7327 66.887 10.8467 66.7412 10.9971C66.5999 11.1429 66.4906 11.3206 66.4131 11.5303C66.3356 11.7399 66.29 11.9746 66.2764 12.2344L65.9004 12.2617C65.9004 11.7969 65.946 11.3662 66.0371 10.9697C66.1283 10.5732 66.265 10.2246 66.4473 9.92383C66.6341 9.62305 66.8665 9.38835 67.1445 9.21973C67.4271 9.05111 67.7529 8.9668 68.1221 8.9668C68.2223 8.9668 68.3294 8.97591 68.4434 8.99414C68.5618 9.01237 68.6507 9.03288 68.71 9.05566Z" fill="#FEC260"/>
</svg>
